Genre............: Action | Sci-Fi | Thriller
Language.........: English
IMDb.............: http://www.imdb.com/title/tt0409847/
Source...........: EXTENDED.1080p.BluRay.x264-CROSSBOW Thanks!


Format : MPEG-4
Format profile : Base Media
Codec ID : isom
File size : 3.25 GiB
Duration : 2h 15mn
Overall bit rate : 3 444 Kbps

Video
ID : 1
Format : AVC
Format/Info : Advanced Video Codec
Format profile : High@L5.1
Format settings, CABAC : Yes
Format settings, ReFrames : 3 frames
Codec ID : avc1
Codec ID/Info : Advanced Video Coding
Duration : 2h 15mn
Bit rate mode : Variable
Bit rate : 3 000 Kbps
Maximum bit rate : 34.2 Mbps
Width : 1 280 pixels
Height : 536 pixels
Display aspect ratio : 2.35:1
Frame rate mode : Constant
Frame rate : 23.976 fps
Color space : YUV
Chroma subsampling : 4:2:0
Bit depth : 8 bits
Scan type : Progressive
Bits/(Pixel*Frame) : 0.182
Stream size : 2.83 GiB (87%)
Writing library : x264

Audio
ID : 2
Format : AAC
Format/Info : Advanced Audio Codec
Format version : Version 4
Format profile : LC
Format settings, SBR : No
Codec ID : 40
Duration : 2h 15mn
Bit rate mode : Variable
Bit rate : 443 Kbps
Maximum bit rate : 528 Kbps
Channel(s) : 6 channels
Channel positions : Front: L C R, Side: L R, LFE
Sampling rate : 48.0 KHz
Stream size : 428 MiB (13%)


Plot:
A spaceship arrives in Arizona, 1873, to take over the Earth, starting with the Wild West region. A posse of cowboys are all that stand in their way.


Screens :

 
http://img847.imageshack.us/img847/4919/vlcsnap00006r.png
 
http://img62.imageshack.us/img62/4374/vlcsnap00004c.png
 
http://img9.imageshack.us/img9/2381/vlcsnap00005jb.png
 
http://img3.imageshack.us/img3/794/vlcsnap00001hq.png